<!-- Copyright 2000-2022 JetBrains s.r.o. and contributors. Use of this source code is governed by the Apache 2.0 license. -->
<svg
   width="16"
   height="16"
   viewBox="0 0 16 16"
   fill="currentColor"
   xmlns="http://www.w3.org/2000/svg">
<path
     fill="currentColor"
     d="M 2.75,2 C 1.7963206,2 1,2.8313845 1,3.8671875 V 12.132813 C 1,13.168629 1.7963156,14 2.75,14 h 10.5 C 14.203657,14 15,13.16865 15,12.132813 V 6 C 15,4.90134 14.098628,4 13,4 H 8.5 L 6.7363281,2.2832031 C 6.5497672,2.101679 6.2993701,2 6.0390625,2 Z m 0,1 H 6.0390625 L 7.8027344,4.7167969 8.09375,5 H 8.5 13 c 0.558172,0 1,0.4418 1,1 v 6.132813 C 14,12.668375 13.617143,13 13.25,13 H 2.75 C 2.3827844,13 2,12.668396 2,12.132813 V 3.8671875 C 2,3.3316305 2.3827794,3 2.75,3 Z" />
</svg>