<svg
   width="16"
   height="16"
   viewBox="0 0 16 16"
   fill="currentColor"
   xmlns="http://www.w3.org/2000/svg">
<path
     d="M8 1C4.13401 1 1 4.13401 1 8C1 11.866 4.13401 15 8 15C11.866 15 15 11.866 15 8C15 4.13401 11.866 1 8 1ZM8 2C11.3137 2 14 4.68629 14 8C14 11.3137 11.3137 14 8 14C4.68629 14 2 11.3137 2 8C2 4.68629 4.68629 2 8 2Z" />
<path
     d="M12 7L13.1125 9.8123L16 10.0557L13.8 12.0372L14.4721 15L12 13.4123L9.52786 15L10.2 12.0372L8 10.0557L10.8875 9.8123L12 7Z" />
<path
     d="M4 5.37188H5V6.24862C5.28 5.61 5.85 5.25 6.61 5.25C7.41 5.25 8 5.64 8.3 6.32C8.64 5.65 9.25 5.25 10.07 5.25C11.11 5.25 11.85 5.92 11.98 7H11C11 6.62 10.58 6.11 9.82 6.11C9.02 6.11 8.49 6.68 8.49 7.59V10.75H7.5V7.44C7.5 6.62 7.07 6.11 6.33 6.11C5.51 6.11 5 6.68 5 7.59V10.75H4V5.37Z" />
</svg>